{
  "title": "Kung.Fu.Panda.3.2016.720p.BRRip.XviD.GR.AC3 Greek Audio",
  "uid": 15610383,
  "size": 2746552320,
  "categoryP": "video",
  "categoryS": "movies",
  "magnet": "?xt=urn:btih:4876838ae8a8ad0181036f3571b865937dbf7c7c&amp;dn=Kung.Fu.Panda.3.2016.720p.BRRip.XviD.GR.AC3+Greek+Audio&amp;tr=udp%3A%2F%2Ftracker.leechers-paradise.org%3A6969&amp;tr=udp%3A%2F%2Fzer0day.ch%3A1337&amp;tr=udp%3A%2F%2Fopen.demonii.com%3A1337&amp;tr=udp%3A%2F%2Ftracker.coppersurfer.tk%3A6969&amp;tr=udp%3A%2F%2Fexodus.desync.com%3A6969",
  "seeders": 36,
  "leechers": 8,
  "uploader": "bad7",
  "files": 1,
  "time": 1471768227,
  "description": "KUNG FU PANDA 3. Kung.Fu.Panda.3.2016.720p.BRRip.XviD.GR.AC3 METAGLOTISMENO\r\n \nhttp://i.imgur.com/RacHcRv.png\r\n\r\nGreek Title: KUNG FU PANDA 3\r\nGenre: Animation | Action\r\nDirected by: Alessandro Carloni, Jennifer Yuh\r\nScreenplay: Jonathan Aibel, Glenn Berger\r\nStars: ack Black (as Po), Angelina Jolie (as Tigress),\r\nDustin Hoffman (as Shifu), Jackie Chan (as Monkey), Seth Rogen (as Mantis)\r\nProduction Country: China | USA\r\nDuration: 1 hour, 34lepta\r\nSound: Greek\r\nProduction year: 2016\r\nIMDb Link: www.imdb.com/title/tt2267968/\r\nRating: 7.3 / 10\r\n\r\nActors:\r\nIn Greek compilation are heard:\r\nChristos Thanos Emmanuel Giourga, uro Loupis, Nestor Kopsidas, Leonidas Kakouris, Mary Zervos Giorgos Papadopoulos, Spyros lace Costas Darlas, Telemachus Patty, Anna Koutsaftiki.\r\n\r\nCase:\r\nWhen for many years lost Po father makes a sudden appearance, the two of them traveling in a secret paradise of everything, the birthplace of Pau, and know a bunch of new characters of their race. But when a supernatural villain, Cai starts fraudulent mission to eliminate all masters of kung fu in China, Po undertakes its own improbable mission to educate a village around lovable everything to create the ultimate team of Always of Kung-Fu.\r\n \nhttp://i.imgur.com/Vy3LCy3.jpg \nhttp://i.imgur.com/PVvCk4T.jpg \nhttp://i.imgur.com/V4dYW8l.jpg\r\n\r\nComplete name: Kung.Fu.Panda.3.2016.720p.BRRip.XviD.GR.AC3 [Greek Audio] .avi\r\n\r\nFormat: AVI\r\n\r\nFormat / Info: Audio Video Interleave\r\n\r\nFormat profile: OpenDML\r\n\r\nFile size: 2.56 GiB\r\n\r\nDuration: 1h 34mn\r\n\r\nOverall bit rate: 3 858 Kbps\r\n\r\nWriting application: VirtualDubMod 1.5.10.2 (build 2542 / release)\r\n\r\nWriting library: VirtualDubMod build 2542 / release\r\n\r\nFormat: MPEG-4 Visual\r\n\r\nFormat profile: Advanced Simple @ L5\r\n\r\nsettings Format, BVOP: 1\r\n\r\nsettings Format, QPel: No\r\n\r\nsettings Format, GMC: No warppoints\r\n\r\nsettings Format, Matrix: Default (H.263)\r\n\r\nMuxing mode: Packed bitstream\r\n\r\nCodec ID: XVID\r\n\r\nCodec ID / Hint: XviD\r\n\r\nDuration: 1h 34mn\r\n\r\nBit rate: 3 401 Kbps\r\n\r\nWidth: 1 280 pixels\r\n\r\nHeight: 544 pixels\r\n\r\nDisplay aspect ratio: 2.35: 1\r\n\r\nFrame rate: 23.976 (23976/1000) fps\r\n\r\nColor space: YUV\r\n\r\nChroma subsampling: 4: 2: 0\r\n\r\nBit depth: 8 bits\r\n\r\nScan type: Progressive\r\n\r\nCompression mode: Lossy\r\n\r\nBits / (Pixel * Frame): 0.204\r\n\r\nStream size: 2.25 GiB (88%)\r\n\r\nWriting library: XviD 64\r\n\r\nFormat: AC-3\r\n\r\nFormat / Info: Audio Coding 3\r\n\r\nMode extension: CM (complete main)\r\n\r\nsettings Format, Endianness: Big\r\n\r\nCodec ID: 2000\r\n\r\nDuration: 1h 34mn\r\n\r\nBit rate mode: Constant\r\n\r\nBit rate: 448 Kbps\r\n\r\nChannel (s): 6 channels\r\n\r\nChannel positions: Front: L C R, Side: L R, LFE\r\n\r\nSampling rate: 48.0 KHz\r\n\r\nFrame rate: 31.250 fps (1536 spf)\r\n\r\nCompression mode: Lossy\r\n\r\nStream size: 304 MiB (12%)\r\n\r\nAlignment: Split accross interleaves\r\n\r\nInterleave, duration: 64 ms (1.53 video frames)\r\n\r\nInterleave, preload duratio: 500 ms",
  "parsed": {
    "xt": "urn:btih:4876838ae8a8ad0181036f3571b865937dbf7c7c",
    "dn": "Kung.Fu.Panda.3.2016.720p.BRRip.XviD.GR.AC3 Greek Audio",
    "tr": [
      "udp://exodus.desync.com:6969",
      "udp://open.demonii.com:1337",
      "udp://tracker.coppersurfer.tk:6969",
      "udp://tracker.leechers-paradise.org:6969",
      "udp://zer0day.ch:1337"
    ],
    "infoHash": "4876838ae8a8ad0181036f3571b865937dbf7c7c",
    "infoHashBuffer": {
      "type": "Buffer",
      "data": [
        72,
        118,
        131,
        138,
        232,
        168,
        173,
        1,
        129,
        3,
        111,
        53,
        113,
        184,
        101,
        147,
        125,
        191,
        124,
        124
      ]
    },
    "name": "Kung.Fu.Panda.3.2016.720p.BRRip.XviD.GR.AC3 Greek Audio",
    "announce": [
      "udp://exodus.desync.com:6969",
      "udp://open.demonii.com:1337",
      "udp://tracker.coppersurfer.tk:6969",
      "udp://tracker.leechers-paradise.org:6969",
      "udp://zer0day.ch:1337"
    ],
    "urlList": []
  },
  "previous": 47,
  "peers": 101,
  "last_updated": "2016-12-26T23:13:14.589Z"
}